<svg version="1.1" id="Warstwa_1" xmlns="http://www.w3.org/2000/svg" x="0" y="0" width="200" height="200" xml:space="preserve"><path d="M47.1 106.6c.8.3 1.2.4 1.3.4.2 0 .4-.1.6-.3l.3-.6h.5v4.3h-.5c-.4-.9-.9-1.7-1.3-2.2-.9-1-1.8-1.5-2.9-1.5-1.2 0-2.1.5-2.6 1.6s-.8 2.5-.8 4.2c0 1.3.2 2.4.5 3.2.6 1.6 1.6 2.4 3.1 2.4.9 0 1.8-.3 2.6-.8.5-.3 1-.8 1.6-1.4l.5.4c-.7.8-1.3 1.4-1.9 1.7a6.37 6.37 0 01-7.7-.6c-1.3-1.2-2-2.8-2-4.8s.6-3.6 1.9-4.8c1.2-1.2 2.7-1.7 4.4-1.7.8 0 1.6.2 2.4.5zm14.2 11.6c.4 0 .8-.2 1.1-.6.2-.2.4-.7.7-1.5l4-10h.5l4.1 9.6c.5 1.1.8 1.8 1 2.1.2.3.6.5 1 .5v.5h-5.9v-.5c.6 0 1-.1 1.2-.2.2-.1.3-.3.3-.6 0-.1 0-.4-.1-.6-.1-.2-.1-.4-.2-.6l-.5-1.1h-4.1c-.3.7-.4 1.2-.5 1.4-.2.5-.2.8-.2 1 0 .3.2.5.5.6.2.1.5.1.9.1v.5h-3.7l-.1-.6zm6.8-3.8l-1.7-4.2h-.2l-1.6 4.2h3.5zm16.4 3.8c.7 0 1.1-.1 1.3-.4.2-.2.3-.6.3-1.1v-8.6c-.6-.6-.9-1-1-1.1-.1-.1-.3-.2-.5-.2v-.5h3.9l6.3 7.6h.1v-5.3c0-.6-.1-1.1-.3-1.3-.2-.3-.7-.4-1.3-.5v-.5H97v.5c-.6.1-1 .2-1.2.4s-.3.5-.3 1.1V119H95l-8-9.7h-.1v7.1c0 .6.1 1 .2 1.2.2.4.7.6 1.5.6v.5h-4.1v-.5zm24.2-11.8h11v3.7h-.5c-.2-1.3-.7-2.2-1.5-2.7-.5-.3-1.1-.4-2-.4v9.6c0 .7.1 1.1.4 1.3.2.2.7.3 1.5.3v.5h-6.5v-.5c.7 0 1.2-.1 1.4-.3.2-.2.4-.7.4-1.3V107c-.9 0-1.6.2-2 .4-.9.5-1.4 1.4-1.5 2.7h-.5l-.2-3.7zm34.1 1.5c1.2 1.2 1.9 2.8 1.9 4.7 0 1.9-.6 3.5-1.9 4.7a6.18 6.18 0 01-4.6 1.8c-1.9 0-3.5-.6-4.8-1.9a5.95 5.95 0 01-1.7-4.4c0-1.9.6-3.5 1.8-4.7 1.2-1.2 2.8-1.9 4.7-1.9 1.8-.1 3.4.5 4.6 1.7zM141 116c.3-.9.4-2 .4-3.4 0-1.9-.3-3.4-.9-4.4-.6-1-1.4-1.5-2.4-1.5-1.4 0-2.3.8-2.8 2.5-.3.9-.4 2-.4 3.4s.1 2.6.4 3.4c.5 1.6 1.4 2.4 2.8 2.4 1.5 0 2.4-.8 2.9-2.4zm15.7 2.2c.7 0 1.1-.1 1.3-.4.2-.2.3-.6.3-1.1v-8.6c-.6-.6-.9-1-1-1.1-.1-.1-.3-.2-.5-.2v-.5h3.9l6.3 7.6h.1v-5.4c0-.6-.1-1.1-.3-1.3s-.7-.4-1.3-.5v-.5h3.9v.5c-.6.1-.9.2-1.1.4s-.3.5-.3 1.1V119h-.5l-8-9.7h-.1v7.1c0 .6.1 1 .2 1.2.2.4.7.6 1.5.6v.5H157l-.3-.5z" fill="#aa525b"/><path d="M33.1 103.6h141.1v1.3H33.1v-1.3z" fill="#43538e"/><path class="st2" d="M38 101.4c.5 0 .9-.1 1.1-.2.4-.2.5-.6.5-1.1v-8.8c0-.5-.2-.9-.5-1.1-.2-.1-.6-.2-1.1-.2v-.5h6.4v.5c-.7 0-1.2.1-1.5.3-.2.2-.4.6-.4 1.4v8.6c0 .4.1.7.3.8.2.1.6.2 1.2.2 1.1 0 2-.2 2.8-.7.7-.5 1.4-1.4 1.9-2.8h.5l-.7 4.1H38v-.5zm26.9-10.1c1.2-1.3 2.8-1.9 4.6-1.9.8 0 1.5.1 2.3.4.7.3 1.2.4 1.4.4.2 0 .4-.1.5-.2.1-.1.2-.3.3-.6h.5v4.3H74c-.4-.9-.9-1.7-1.3-2.2-.9-1-1.8-1.5-2.9-1.5-1.2 0-2 .5-2.6 1.5-.5 1-.8 2.5-.8 4.3 0 1.5.3 2.9.8 4.1s1.5 1.8 2.9 1.8c.8 0 1.3-.2 1.6-.5.2-.2.2-.5.2-.8v-1.9c0-.6-.2-.9-.5-1.1-.2-.1-.7-.2-1.3-.2v-.5h6.2v.5c-.6 0-1 .2-1.2.4-.2.2-.3.6-.3 1.3v2.3c-.4.2-1.1.5-1.9.7-.9.2-1.9.4-3 .4-2 0-3.6-.6-4.9-1.9a6.44 6.44 0 01-1.7-4.5c-.1-1.9.5-3.4 1.6-4.6zM77 101.4c.5 0 .8-.1 1-.2.3-.2.5-.6.5-1.1v-8.8c0-.5-.2-.9-.5-1-.2-.1-.5-.2-1.1-.2v-.5h6.2v.5c-.5 0-.9.1-1.1.2-.3.2-.5.5-.5 1.1v3.8h4.3v-3.8c0-.5-.2-.9-.5-1.1-.2-.1-.6-.2-1.1-.2v-.5h6.2v.5c-.5 0-.9.1-1.1.2-.3.2-.5.5-.5 1.1v8.8c0 .5.2.9.5 1.1.2.1.6.2 1 .2v.5h-6.2v-.5c.5 0 .9-.1 1.1-.2.3-.2.5-.5.5-1.1V96h-4.3v4.2c0 .5.2.9.6 1.1.2.1.6.2 1.1.2v.5H77v-.6zm14.8-11.8h11v3.7h-.5c-.2-1.3-.7-2.2-1.5-2.7-.5-.3-1.1-.4-2-.4v9.6c0 .7.1 1.1.4 1.3.2.2.7.3 1.5.3v.5h-6.5v-.5c.7 0 1.2-.1 1.4-.3.2-.2.4-.7.4-1.3v-9.6c-.9 0-1.6.2-2 .4-.9.5-1.4 1.4-1.5 2.7H92c-.2 0-.2-3.7-.2-3.7zm12.5 11.8c.5 0 .8-.1 1-.2.3-.2.5-.6.5-1.1v-8.8c0-.5-.2-.9-.5-1-.2-.1-.6-.2-1.1-.2v-.5h6.2v.5c-.5 0-.9.1-1.1.2-.3.2-.5.5-.5 1.1v3.8h4.3v-3.8c0-.5-.2-.9-.5-1.1-.2-.1-.6-.2-1.1-.2v-.5h6.2v.5c-.5 0-.9.1-1.1.2-.3.2-.5.5-.5 1.1v8.8c0 .5.2.9.5 1.1.2.1.6.2 1 .2v.5h-6.2v-.5c.5 0 .9-.1 1.1-.2.3-.2.5-.5.5-1.1V96h-4.3v4.2c0 .5.2.9.6 1.1.2.1.6.2 1.1.2v.5h-6.2c.1-.1.1-.6.1-.6zm26-10.3c1.2 1.2 1.9 2.8 1.9 4.7s-.6 3.5-1.9 4.7a6.18 6.18 0 01-4.6 1.8c-1.9 0-3.5-.6-4.8-1.9a5.95 5.95 0 01-1.7-4.4c0-1.9.6-3.5 1.8-4.7 1.2-1.2 2.8-1.9 4.7-1.9 1.9-.1 3.4.5 4.6 1.7zm-1.8 8.1c.3-.9.4-2 .4-3.4 0-1.9-.3-3.4-.9-4.4-.6-1-1.4-1.5-2.4-1.5-1.4 0-2.3.8-2.8 2.5-.3.9-.4 2-.4 3.4s.1 2.6.4 3.4c.5 1.6 1.4 2.4 2.8 2.4 1.5.1 2.4-.7 2.9-2.4zm11.3-9.6v.5c-.7 0-1.2.1-1.4.3-.2.2-.4.6-.4 1.3v6.1c0 .9.1 1.6.3 2.1.4.9 1.2 1.4 2.3 1.4 1.4 0 2.4-.5 2.8-1.6.3-.6.4-1.4.4-2.4v-5.6c0-.6-.1-1.1-.4-1.3-.2-.2-.7-.4-1.4-.5v-.5h4v.6c-.6.1-1 .2-1.2.4-.2.2-.3.5-.3 1.1v5.8c0 1.5-.4 2.7-1.1 3.6-.7.8-1.9 1.3-3.5 1.3-2.1 0-3.5-.6-4.3-1.9a5 5 0 01-.6-2.6v-6.1c0-.7-.1-1.1-.3-1.3-.2-.2-.6-.3-1.2-.4v-.5h6.3zm7.8 8h.5a6 6 0 001.4 3c.6.6 1.4.9 2.2.9.8 0 1.4-.2 1.7-.6.3-.4.5-.9.5-1.3 0-.6-.2-1-.5-1.3-.2-.2-.7-.5-1.4-.9l-1.2-.6c-1.2-.6-2-1.2-2.4-1.7-.5-.6-.7-1.3-.7-2.1 0-.9.3-1.7.9-2.5.6-.8 1.6-1.2 2.9-1.2.7 0 1.3.1 1.9.3.6.2 1 .3 1.1.3.2 0 .3-.1.4-.2.1-.1.1-.3.2-.5h.5v4h-.5c-.2-.9-.7-1.7-1.3-2.4-.6-.7-1.3-1-2.2-1-.6 0-1.1.2-1.4.5-.4.3-.5.7-.5 1.2 0 .6.2 1 .5 1.3.3.3 1 .7 2.2 1.3l1.3.7c.6.3 1.1.6 1.4 1 .7.7 1 1.5 1 2.5a4 4 0 01-1.1 2.6c-.7.8-1.8 1.2-3.4 1.2-.4 0-.7 0-1.1-.1l-1.1-.3-.3-.1-.2-.1h-.2c-.2 0-.3.1-.4.2-.1.1-.1.3-.2.5h-.5v-4.6zm10.3 4.3v-.5c.5 0 .9-.1 1.1-.2.3-.2.5-.5.5-1.1v-8.8c0-.5-.2-.9-.5-1.1-.2-.1-.6-.2-1.1-.2v-.5h10.5v3.7h-.4c-.2-1.2-.6-2-1.2-2.4-.6-.4-1.6-.6-3-.6-.6 0-.9.1-1.1.2-.2.1-.2.3-.2.7v4.2c1 0 1.7-.2 2.1-.6.4-.4.6-1.1.8-2.1h.5v6.2h-.5c-.1-1-.4-1.8-.8-2.2-.4-.4-1.1-.6-2.2-.6v4.4c0 .4.1.6.3.8.2.1.6.2 1.2.2 1.2 0 2.1-.2 2.8-.7.7-.5 1.4-1.3 1.9-2.5h.5l-.7 3.8c.1-.1-10.5-.1-10.5-.1zM56.6 79.5L55 80.7h-.2l-.1.1v.1l.1.1v2.2h-1.3v.8h.5v.2h-.6v1l.9.7-.1 2-.5 6.9-.4.5h-.2l-1.6 1.1v.6h.4v4h-.7l-1 .9h6.3l.3-.5 1.1.5h4.8l-.8-1h-.6l-2-15.8h.7v-.9h-.6V84h.6v-.8h-.9V81h.1v-.1s0-.1-.1-.1h-.2l-1.8-1.2v-.3c0-.1 0-.1-.1-.2 0 0-.1-.1-.2-.1s-.2 0-.2.1c-.1 0-.1.1-.1.2l.1.2m2.4 6.2l1.8 15.2h-2.3l-1-.6v-1.7h.9v-2.1h-.9v-3.2h.7v-2.1h-.7v-2.7h.8l-.1-1.8h-1v-1.1l1.8.1m-1.8-.6v-.7h2v.7h-2m0-2.3v-1.4h1v1.4h-1m0 1.3v-.6h1.6v.6h-1.6M55 85.7h1.8l-.1 15.2h-2.4l.8-1.7-.2-3.4h-1.1l-1.1.7-.1 4.1-.2-.1v-4.2l.8-.5.6-.3.4-.4.3-.3.5-9.1m.8-2.9v-1.4h1.1v1.4h-1.1m-1.3 1.3v-.6h2.4v.6h-2.4m-.3 1v-.7h2.7v.7h-2.7m-.9 13.4h.5v-1.3h-.5V97l1.1-.8v3.2l-1 1.6-.1-2.5"/><path class="st2" d="M56.1 98.5h.1s.1 0 .1-.1c0 0 .1-.1.1-.2V98c0-.1 0-.2-.1-.3 0 0 0-.1-.1-.1 0 0-.1 0-.1-.1H56h-.1s-.1 0-.1.1c0 0-.1.1-.1.2v.2c0 .1 0 .2.1.3 0 0 0 .1.1.1 0 0 .1 0 .2.1"/></svg>