<svg xmlns="http://www.w3.org/2000/svg" width="200" height="200"><path d="M17.8 91h164.5v19.3H17.8V91z" fill="none"/><path d="M21.5 101.5H26v2.5h-7.9v-2.4l4.2-5h-4.2v-2.5h7.7v2.4l-4.3 5zm15-6.3c.7.8 1 1.8 1 3.1v5.7h-3.1v-5.4c0-.7-.2-1.2-.5-1.6-.3-.3-.7-.5-1.3-.5s-1.1.2-1.4.6-.5 1-.5 1.7v5.3h-3.1v-10h3.1V96c.3-.6.7-1 1.2-1.4.6-.3 1.2-.5 2-.5 1-.1 1.9.3 2.6 1.1zm8.8-.7c.5.3 1 .8 1.2 1.4v-1.8h3v9.9h-3v-1.8c-.3.6-.7 1-1.2 1.4-.5.3-1.2.5-2 .5s-1.6-.2-2.2-.6-1.2-1-1.5-1.8S39 100 39 99s.2-2 .6-2.7c.4-.8.9-1.4 1.5-1.8.7-.4 1.4-.6 2.2-.6.8.1 1.4.3 2 .6zm-2.6 2.9c-.4.5-.6 1-.6 1.8s.2 1.4.6 1.8c.4.4.9.7 1.6.7s1.2-.2 1.6-.7c.4-.5.6-1 .6-1.8s-.2-1.3-.6-1.8c-.4-.5-.9-.7-1.6-.7-.6 0-1.2.2-1.6.7zm7.3 8.8h.7c.3 0 .5-.1.7-.2s.2-.4.2-.7V94.2h3.1v11.1c0 2.3-1.2 3.5-3.6 3.5h-1.2l.1-2.6zm1.8-13.7c-.3-.3-.5-.7-.5-1.1 0-.5.2-.8.5-1.2.3-.3.8-.5 1.3-.5s1 .1 1.3.5c.3.3.5.7.5 1.2s-.2.8-.5 1.1c-.3.3-.8.5-1.3.5s-.9-.2-1.3-.5zm10.7 2c.5.3.9.8 1.2 1.4v-5.1h3.1V104h-3.1v-1.8c-.3.6-.7 1-1.2 1.4-.5.3-1.2.5-2 .5s-1.6-.2-2.2-.6-1.2-1-1.5-1.8-.6-1.7-.6-2.7.2-2 .6-2.7.9-1.4 1.5-1.8c.7-.4 1.4-.6 2.2-.6.8.1 1.4.3 2 .6zm-2.6 2.9c-.4.5-.6 1-.6 1.8s.2 1.4.6 1.8.9.7 1.6.7 1.2-.2 1.6-.7c.4-.5.6-1 .6-1.8s-.2-1.3-.6-1.8c-.4-.5-.9-.7-1.6-.7-.6 0-1.2.2-1.6.7zm11.6 4.1h4.6v2.5h-7.9v-2.4l4.2-5h-4.2v-2.5H76v2.4l-4.5 5z" fill="#2c3138"/><path d="M80.3 101.5h4.6v2.5H77v-2.4l4.2-5H77v-2.5h7.7v2.4l-4.4 5zm11.7-7c.5.3 1 .8 1.2 1.4v-1.8h3v9.9h-3v-1.8c-.3.6-.7 1-1.2 1.4-.5.3-1.2.5-2 .5s-1.6-.2-2.2-.6-1.2-1-1.5-1.8-.6-1.7-.6-2.7.2-2 .6-2.7.9-1.4 1.5-1.8c.7-.4 1.4-.6 2.2-.6.9.1 1.5.3 2 .6zm-2.5 2.9c-.4.5-.6 1-.6 1.8s.2 1.4.6 1.8.9.7 1.6.7 1.2-.2 1.6-.7.6-1 .6-1.8-.2-1.3-.6-1.8-.9-.7-1.6-.7c-.7 0-1.2.2-1.6.7zm13.4-2.8c.6-.3 1.2-.5 2-.5v3.3h-.9c-.8 0-1.4.2-1.9.5s-.7.9-.7 1.8v4.5h-3.1v-10h3.1v1.9c.4-.7.9-1.2 1.5-1.5zm5.9 6.9h4.6v2.5h-7.9v-2.4l4.2-5h-4.2v-2.5h7.7v2.4l-4.4 5zm11.8-7c.5.3 1 .8 1.2 1.4v-1.8h3v9.9h-3v-1.8c-.3.6-.7 1-1.2 1.4-.5.3-1.2.5-2 .5s-1.6-.2-2.2-.6-1.2-1-1.5-1.8c-.4-.8-.6-1.7-.6-2.7s.2-2 .6-2.7c.4-.8.9-1.4 1.5-1.8.7-.4 1.4-.6 2.2-.6.8.1 1.4.3 2 .6zm-2.6 2.9c-.4.5-.6 1-.6 1.8s.2 1.4.6 1.8.9.7 1.6.7 1.2-.2 1.6-.7.6-1 .6-1.8-.2-1.3-.6-1.8-.9-.7-1.6-.7c-.7 0-1.2.2-1.6.7zm14.6-2.9c.5.3.9.8 1.2 1.4v-5.1h3.1V104h-3.1v-1.8c-.3.6-.7 1-1.2 1.4-.5.3-1.2.5-2 .5s-1.6-.2-2.2-.6c-.7-.4-1.2-1-1.5-1.8s-.6-1.7-.6-2.7.2-2 .6-2.7c.4-.8.9-1.4 1.5-1.8.7-.4 1.4-.6 2.2-.6.9.1 1.5.3 2 .6zm-2.5 2.9c-.4.5-.6 1-.6 1.8s.2 1.4.6 1.8c.4.4.9.7 1.6.7.7 0 1.2-.2 1.6-.7.4-.5.6-1 .6-1.8s-.2-1.3-.6-1.8c-.4-.5-.9-.7-1.6-.7-.7 0-1.2.2-1.6.7zm16.6-2.3c.8.7 1.4 1.7 1.6 2.9h-3.2c-.1-.5-.3-.8-.6-1s-.7-.3-1.1-.3c-.5 0-1 .2-1.3.7s-.5 1-.5 1.8.2 1.4.5 1.8.8.7 1.3.7.8-.1 1.1-.3c.3-.3.5-.6.6-1h3.2c-.2 1.2-.8 2.2-1.6 2.9s-2 1-3.2 1c-1 0-1.8-.2-2.6-.6s-1.4-1-1.8-1.8c-.5-.8-.7-1.7-.7-2.7s.2-2 .7-2.7c.5-.8 1-1.4 1.8-1.8s1.6-.6 2.6-.6c1.3-.1 2.3.3 3.2 1zm12.6 4.6h-6.9c.1.7.2 1.3.6 1.6.3.3.8.5 1.3.5s.8-.1 1.1-.3c.3-.2.5-.5.6-.8h3.2c-.1.7-.4 1.3-.8 1.9-.5.6-1 1-1.7 1.3s-1.4.5-2.3.5c-1 0-1.8-.2-2.6-.6s-1.4-1-1.8-1.8c-.5-.8-.7-1.7-.7-2.7s.2-2 .7-2.7c.4-.8 1-1.4 1.8-1.8s1.6-.6 2.6-.6 1.8.2 2.6.6c.7.4 1.3 1 1.8 1.7.4.7.6 1.6.6 2.5-.1.1-.1.4-.1.7zm-3.6-2.8c-.4-.3-.8-.5-1.4-.5-.6 0-1 .2-1.4.5s-.6.8-.7 1.4h3.9c.2-.6 0-1.1-.4-1.4z" fill="#f76f1c"/><path d="M163.5 101.1v3.1h-3.1v-3.1h3.1zm10-6.4c.7.4 1.2 1 1.5 1.8.4.8.6 1.7.6 2.7s-.2 2-.6 2.7c-.4.8-.9 1.4-1.5 1.8a4.28 4.28 0 01-4.2.1c-.5-.3-.9-.8-1.2-1.4v6.5H165V94.2h3.1V96c.3-.6.7-1 1.2-1.4.5-.3 1.2-.5 2-.5.8-.1 1.5.1 2.2.6zm-4.8 2.7c-.4.5-.6 1-.6 1.8 0 .7.2 1.3.6 1.8s.9.7 1.6.7 1.2-.2 1.6-.7c.4-.5.6-1 .6-1.8 0-.7-.2-1.4-.6-1.8-.4-.5-.9-.7-1.6-.7s-1.2.2-1.6.7zm11.5-6.5v13.2h-3.1V90.9h3.1z" fill="#2c3138"/></svg>