<svg width="200" height="200" viewBox="0 0 125 30" fill="none" xmlns="http://www.w3.org/2000/svg">
<g clip-path="url(#clip0_10_849)">
<path d="M104.799 29.025H87.4059V-0.000244141H95.9951V21.0021H104.8V29.0235L104.799 29.025ZM125 21.5293V29.0264H106.854V-0.000244141H125V7.49686H115V10.7616H124.476V17.9372H115V21.525H125V21.5293ZM0 29.025V-0.000244141H10.0406C11.0892 -0.000244141 12.0843 0.0939042 13.0243 0.282201C13.9658 0.470498 14.8523 0.739907 15.6851 1.08898C17.3523 1.84217 18.6616 3.0183 19.6162 4.61592C20.5707 6.21355 21.0472 8.33116 21.0472 10.9659V18.0212C21.0472 19.3378 20.927 20.527 20.6837 21.5887C20.4418 22.6504 20.0782 23.5846 19.5944 24.39C18.6269 26.0035 17.316 27.1782 15.6634 27.9169C14.0107 28.6556 12.122 29.0264 9.99855 29.0264H0V29.025ZM9.55678 7.05509H8.30678V21.8089H9.55678C10.4432 21.8089 11.1501 21.4656 11.6744 20.7805C12.1987 20.0954 12.4609 18.8917 12.4609 17.1724V11.6901C12.4609 9.94327 12.1915 8.73382 11.6541 8.06175C11.1167 7.38968 10.4171 7.05364 9.55678 7.05364V7.05509ZM34.0266 29.5478C30.5316 29.5478 27.9244 28.6542 26.2036 26.8682C24.4829 25.0809 23.6225 22.226 23.6225 18.3022V-0.000244141H32.2118V18.1805C32.2118 19.5783 32.3523 20.5328 32.6347 21.0426C32.9171 21.5525 33.3806 21.8089 34.0252 21.8089C34.7248 21.8089 35.1941 21.5597 35.436 21.0629C35.6779 20.5661 35.7995 19.6043 35.7995 18.182V-0.000244141H44.3888V18.3007C44.3888 22.2246 43.4676 25.0809 41.6266 26.8668C39.7856 28.6542 37.2509 29.5464 34.0252 29.5464H34.0266V29.5478ZM64.3598 18.9453H55.6098V29.0235H47.4638V-0.000244141H64.8841V7.49686H55.6098V11.7697H64.3598V18.9453ZM84.3294 18.9453H75.5794V29.0235H67.4334V-0.000244141H84.8537V7.49686H75.5794V11.7697H84.3294V18.9453Z" fill="black"/>
</g>
<defs>
<clipPath id="clip0_10_849">
<rect width="125" height="29.5481" fill="white"/>
</clipPath>
</defs>
</svg>
