<svg xmlns="http://www.w3.org/2000/svg" width="200" height="200"><path d="M91.7 96.8c-2.1 0-4 .7-5.2 2.1l-.1.2-.1-.2a5.55 5.55 0 00-4.5-2.1c-2 0-3.7.6-4.8 1.7l-.2.2-.1-.2c-.5-1.1-1.7-1.7-3.1-1.7-.6 0-1.2.1-1.7.3-.2.1-.2.2-.2.4v2.1c.1 0 .2.1.3 0l.8-.1c.9 0 1.4.4 1.4 1.3v10c0 .2.1.3.3.3h2.7c.2 0 .3-.1.3-.3v-7.6c0-2.2 1.5-3.7 3.7-3.7 2.1 0 3.4 1.6 3.4 3.9v7.3c0 .1.1.2.2.3H87.6c.1 0 .2-.1.3-.2V103.1c0-2.2 1.3-3.7 3.3-3.7 2.3 0 3.8 1.6 3.8 3.9v7.3c0 .1.1.2.2.3H98c.2 0 .3-.1.3-.3V103c-.4-3.6-2.9-6.2-6.6-6.2m26.7 11.7h-.2c-.5.1-.8.1-1.1.1-.7 0-1.2-.5-1.2-1.3v-9.9c0-.1-.1-.2-.2-.3H112.9c-.2 0-.3.1-.3.3v7.5c0 2.2-1.6 3.7-4 3.7-2.3 0-3.8-1.6-3.8-3.9v-7.3c0-.1-.1-.2-.2-.3H101.8c-.2 0-.3.1-.3.3v7.5c0 3.9 2.5 6.5 6.2 6.5 2 0 3.7-.6 4.9-1.6l.2-.1.1.2c.6 1 1.9 1.6 3.5 1.6.6 0 1.2-.1 1.9-.3.2-.1.2-.2.2-.3l-.2-2c.2-.3.1-.4.1-.4m9.6.3c-2.5 0-4.4-2-4.4-4.7s1.8-4.7 4.4-4.7c2.5 0 4.3 1.9 4.3 4.7s-1.8 4.7-4.3 4.7m10-.3h-.2c-.4.1-.7.1-1.1.1-.7 0-1.2-.5-1.2-1.3V90.7c0-.2-.1-.3-.3-.3h-2.7c-.2 0-.3.1-.3.3v7.5l-.3-.2c-1.2-.8-2.5-1.2-4-1.2-4.5 0-7.6 3-7.6 7.3s3.1 7.3 7.6 7.3c1.9 0 3.3-.5 4.7-1.8l.2-.2.1.2c.5 1.1 1.7 1.7 3.2 1.7.6 0 1.2-.1 1.9-.3.2-.1.2-.2.2-.3l-.2-2c.1-.1.1-.2 0-.2m6.2-11.3h-2.7c-.2 0-.3.1-.3.3v13.3c0 .1.1.2.2.3H144.2c.2 0 .3-.1.3-.3V97.5c-.1-.2-.2-.3-.3-.3m12.9 11.1c-.8.2-1.6.3-2.3.3-1.6 0-2.7-1.1-2.7-2.8v-6.1h5.1c.2 0 .3-.1.3-.3v-2c0-.2-.1-.3-.3-.3H152v-4c0-.2-.1-.3-.3-.3H149c-.1 0-.2.1-.3.2V105.8c0 3.3 2.2 5.5 5.5 5.5.9 0 2.1-.2 3.2-.5.2-.1.2-.2.2-.3l-.3-2c0-.1-.1-.2-.2-.2m10.1.5c-2.5 0-4.4-2-4.4-4.7s1.8-4.7 4.4-4.7c2.5 0 4.3 1.9 4.3 4.7s-1.8 4.7-4.3 4.7m10-.3h-.2c-.5.1-.8.1-1.1.1-.7 0-1.2-.5-1.2-1.3v-9.9c0-.1-.1-.2-.2-.3H171.7c-.2 0-.3.1-.3.3v.8l-.3-.2c-1.2-.8-2.5-1.3-4-1.3-4.5 0-7.6 3-7.6 7.3s3.1 7.3 7.6 7.3c1.8 0 3.3-.6 4.7-1.8l.2-.2.1.2c.5 1.1 1.7 1.7 3.2 1.7.6 0 1.2-.1 1.9-.3.2-.1.2-.2.2-.3l-.2-2.1c.1.1.1.1 0 0m-34.3-17.9c-1 0-1.8.8-1.8 1.8s.8 1.8 1.8 1.8 1.8-.8 1.8-1.8c-.1-1-.9-1.8-1.8-1.8m-82.8 6.5c.2 0 .3-.2.3-.3a19.6 19.6 0 00-37.8 0c0 .1 0 .3.2.3H25c.1 0 .2-.1.2-.2 2.2-7.2 8.8-12.1 16.3-12 7.5 0 14.1 4.9 16.3 12 0 .1.1.2.2.2h2.1zm-11.6 18.1c-1.7 0-3.4-.5-4.9-1.3 2.4-2.3 3.9-5.3 4.5-8.6 1.3-.7 2.8-1 4.3-1 2 0 4 .7 5.7 1.9-.3 4.9-4.5 9-9.6 9M25 106c1.6-1.2 3.6-1.9 5.6-1.9 1.5 0 2.9.3 4.2 1 .6 3.3 2.2 6.3 4.5 8.7-1.5.9-3.1 1.3-4.8 1.3-5.1.1-9.3-4-9.5-9.1m16.5-13.6c2.8 2.6 4.4 6.2 4.3 10 0 3.8-1.6 7.4-4.3 10-2.8-2.6-4.4-6.2-4.3-10-.1-3.8 1.5-7.4 4.3-10m18.8 12.4c-.1-.2-.2-.3-.3-.4a11.6 11.6 0 00-7.6-2.7c-1.4 0-2.8.2-4.1.7 0-4.9-2.2-9.5-6.1-12.6-.5-.4-1.1-.4-1.6 0-3.8 3-6.1 7.7-6.1 12.6-1.3-.5-2.6-.7-4-.7-2.8 0-5.5 1-7.6 2.7-.1.1-.2.2-.3.4-.2.2-.3.5-.3.7a12.08 12.08 0 0019 9.9 12.08 12.08 0 0019-9.9c.3-.2.2-.5 0-.7" fill-rule="evenodd" clip-rule="evenodd"/></svg>