<svg xmlns="http://www.w3.org/2000/svg" width="50" height="50"><path d="M25 10a15.4 15.4 0 00-4.9 30c.8.1 1.1-.3 1.1-.7v-2.6c-4.3.9-5.2-2.1-5.2-2.1-.7-1.8-1.7-2.3-1.7-2.3-1.4-1 .1-.9.1-.9 1.5.1 2.4 1.6 2.4 1.6 1.4 2.4 3.6 1.7 4.5 1.3a3 3 0 011-2.1c-3.4-.4-7-1.7-7-7.6 0-1.7.6-3.1 1.6-4.1-.2-.4-.7-2 .2-4.1 0 0 1.3-.4 4.2 1.6a16 16 0 013.9-.5c1.3 0 2.6.2 3.9.5 2.9-2 4.2-1.6 4.2-1.6.8 2.1.3 3.7.2 4.1a6 6 0 011.6 4.1c0 5.9-3.6 7.2-7 7.6.6.5 1 1.4 1 2.9v4.2c0 .4.3.9 1.1.7 6.1-2 10.5-7.8 10.5-14.6C40.4 16.9 33.5 10 25 10z" fill-rule="evenodd" clip-rule="evenodd" fill="#fff"/></svg>