<svg xmlns="http://www.w3.org/2000/svg" width="200" height="200"><g fill-rule="evenodd" clip-rule="evenodd" fill="#fff"><path d="M111.2 114.3c.8 0 1.3-.5 1.3-1.1s-.5-1.1-1.3-1.1h-1.6v2.3l1.6-.1zm-3.4-2.9c0-.6.3-1 .8-1h2.8c1 0 1.6.3 2.2.8.4.4.7 1.1.7 1.8 0 1.2-.6 2-1.6 2.5l1.3 1.4c.2.2.3.4.3.7 0 .5-.4.8-.8.8-.3 0-.7-.2-.8-.5l-1.6-2.2h-1.4v1.6c0 .6-.4 1-.8 1-.6 0-.8-.4-.8-.8v-6.2l-.3.1zm-6.7 3.6l-1.1-2.6-.8 2.6h2.1-.2zm-4.9 2.2L99 111c.2-.4.6-.7 1.1-.7h.2c.5 0 .8.2 1 .7l2.7 6.1v.4c0 .4-.2.8-.8.8-.3 0-.6-.2-.8-.6l-.4-1.3h-3.5l-.6 1.3c-.2.3-.4.6-.8.6s-.8-.4-.8-.8c-.2-.1-.2-.2-.1-.3zm-6.4-.4c.8 0 1.2-.2 1.2-.8s-.3-.8-1.1-.8h-2.2v1.6h2.1zm-.4-3.2c.8 0 1.3-.2 1.3-.8 0-.6-.4-.8-1.1-.8H88v1.6H89.4zm-3.3-2.2c0-.6.5-1 1-1h2.7c.8 0 1.6.2 2 .8.4.2.6.7.6 1.2 0 .8-.5 1.4-1.1 1.6.8.4 1.5 1 1.5 2 0 1.5-1.1 2.2-2.9 2.2H87c-.5 0-.8-.4-.8-.8v-6.1l-.1.1zm21.7-10.3c0-.5.4-.8.8-.8.5 0 .8.3.8.8v2.6l3.3-3.3c.2 0 .4-.2.8-.2.3 0 .7.4.7.8 0 .2 0 .4-.3.7l-2.1 2.1 2.5 3 .2.6c0 .5-.4.8-.8.8s-.6-.2-.8-.4l-2.1-2.9-1.1.8v1.6c0 .5-.4.8-.8.8-.5 0-.8-.3-.8-.8l-.3-6.2zm-5.9 3.1c0-1.4-1-2.5-2.3-2.5-1.4 0-2.5 1.1-2.5 2.5 0 1.3 1.1 2.5 2.5 2.5s2.3-1.1 2.3-2.5zm-6.5 0c0-2.3 1.8-4.1 4.2-4.1s4.1 1.8 4.1 4.1c0 2.2-1.6 4.1-4.1 4.1s-4.1-1.9-4.2-4.1zm-9.3 3.2c-.2-.2-.4-.4-.4-.7 0-.5.4-.8.8-.8.2 0 .4 0 .5.2.7.4 1.3.7 2 .7.8 0 1.1-.2 1.1-.8 0-.3-.3-.6-1.6-.8-1.6-.5-2.6-.8-2.6-2.5 0-1.5 1.1-2.5 2.8-2.5.8 0 1.6.2 2.5.8.2 0 .4.2.4.6s-.4.8-.8.8l-.5-.2c-.5-.4-1-.6-1.6-.6s-.8.4-.8.8c0 .5.2.7 1.6 1 1.6.4 2.5 1 2.5 2.5s-1.1 2.5-2.9 2.5a7.1 7.1 0 01-3-1zm4.4-20.2h-.2c-.5 0-.8-.6-.7-1.1 0-.2 1.1-5.2 6.5-7 .5-.2 1 0 1.1.6.2.5 0 1.1-.6 1.1-4.3 1.6-5.2 5.7-5.3 5.7 0 .5-.5.8-.8.7"/><path d="M100 139c-21.2 0-38.7-17.5-38.7-39 0-21.2 17-38.6 37.9-38.9v13.6c-7.4.4-13.4 6.7-13.7 14.5-1.1.7-1.6 1.9-1.6 3.3s.8 2.7 2.1 3.3l.2.2h.7l.3 2.5H89l-.3-2.5H112l-.4 2.5h1.8l.4-2.5h.7c1.3-.8 2.2-2 2.2-3.5 0-1.3-.7-2.5-1.6-3.3-.3-7.8-6.4-14.1-13.9-14.5V61c21 .6 37.8 17.7 37.8 39-.2 21.5-17.6 39-39 39zM86.5 94c-.6-.2-1-1-1-1.6 0-.8.4-1.4 1-1.6h27.4c.6.2.8.8.8 1.6 0 .7-.2 1.4-.8 1.6H86.5zm13.6-14.1c.5 0 .8-.3.8-.8v-2.8c6.5.5 11.7 5.9 12.1 12.6H87.2c.5-6.7 5.7-12.1 12-12.5v2.8c0 .5.5.8.9.7zm-.1-20.6c-22.3 0-40.5 18.2-40.5 40.7s18.2 40.7 40.5 40.7c22.4 0 40.6-18.2 40.6-40.7S122.3 59.3 100 59.3z"/><path d="M107.3 126.3H93l-.4-2h15.1l-.4 2zm.7-3.8H92.3l-.3-2.6h-1.8l1 6.7c0 .8.8 1.6 1.8 1.6h14.4c1 0 1.6-.8 1.9-1.6l.8-6.7h-1.6l-.5 2.6z"/></g></svg>