<svg xmlns="http://www.w3.org/2000/svg" width="200" height="200"><path d="M72.7 98.7c-.5-4.1-.5-7.5-.2-10.3 0 0-7.1 5-4.8 8.6 1.1 1.9 3.2 2.1 5 1.7 0 .1 0 0 0 0z" fill="#ff4755"/><path d="M72.3 94.9c-1.6.2-3.4-.1-4.6-1.7-.6 1.2-.9 2.5-.1 3.7 1.2 1.9 3.3 2.1 5 1.8v-.1l-.3-3.7z" fill="#fc2b3a"/><path d="M74 81.6c-3.9 1.1-6.6 2.1-6.3 3.8.2 1.7 3.4 2.6 4.7 2.9.3-2.7.8-4.9 1.6-6.7z" fill="#ffa812"/><path d="M68.9 83.5c-.9.5-1.3 1.2-1.2 1.9.2 1.7 3.4 2.6 4.7 2.9l.3-2.5c-1.4-.3-3.4-1.1-3.8-2.3z" fill="#ff9a00"/><path d="M78.5 76c2.2-1.4 4.3-1.6 5.1-1.6 4.3-.1 6.6 1.5 8.2 3.8 1.3-.7 4-2.4 3.2-4.7-1.2-3.2-4.4-1.3-4.4-1.3s.9-2.3-1.1-3.7c-2-1.5-4.5-.1-4.5-.1-.6-4.7-7.2-5.7-9.7-.8-2 3.8 1.8 7.3 3.2 8.4z" fill="#ff4755"/><path d="M91.7 78.2c.8-.4 2-1.1 2.7-2.1-2.1-2.2-5.1-4.3-8.9-4.6-4.2-.3-7.4.8-9.5 2 .8 1.2 1.9 2.1 2.4 2.5 2.2-1.4 4.3-1.6 5.1-1.6 4.3-.1 6.7 1.5 8.2 3.8z" fill="#fc2b3a"/><path d="M83.5 74.4c-2 0-13.6 1.1-10.9 24.3 2.4 20.4 16.9 26.9 28.2 26.9 16.4-.1 36.9-13.9 30.9-35.6 0 0-1.8-8.1-8.1-7.7-6.3.3-6.1 12.7-19.6 11.3-13.6-1.4-6.2-19.6-20.5-19.2z" fill="#ffe9c8"/><path d="M100.8 121.7c-11.3 0-25.8-6.4-28.2-26.9-.2-1.7-.3-3.2-.4-4.6-.1 2.4 0 5.3.4 8.5 2.4 20.4 16.9 26.9 28.2 26.9 15 0 33.3-11.5 31.9-30-1.2 16.2-18 26-31.9 26.1z" fill="#ffdca7"/><path d="M122 117c-5.9 4.7-13.8 7.6-21.2 7.6h-.1c-3.2 0-8-.5-12.9-3.1-4.7-2.4-8.3-6.1-10.7-10.9-.3-.5-.9-.7-1.5-.5-.5.3-.7.9-.5 1.5a27.79 27.79 0 0020.4 14.8v6l-5.3-1.8c-.6-.2-1.2.1-1.4.7-.2.6.1 1.2.7 1.4l3.5 1.2-3.5 1c-.6.2-.9.8-.7 1.4.2.6.8.9 1.4.7l6.7-2c.5-.1.8-.6.8-1v-7.2c1.1.1 2.1.1 3 .1h.1c2.3 0 4.6-.3 6.9-.8v6.3l-5.3-1.8c-.6-.2-1.2.1-1.4.7-.2.6.1 1.2.7 1.4l3.5 1.2-3.5 1c-.6.2-.9.8-.7 1.4.2.6.8.9 1.4.7l6.7-2c.5-.1.8-.6.8-1v-8.4c4.9-1.3 9.6-3.7 13.5-6.8.5-.4.5-1.1.2-1.5-.4-.6-1.1-.7-1.6-.3zM75.4 106.6c-.8-2.4-1.4-5.1-1.8-8-1.1-9.3.1-16.3 3.3-20 2.4-2.8 5.4-3.2 6.5-3.2 3-.1 5.1.7 6.6 2.4 1.4 1.6 2.2 3.8 3 6.1 1.6 4.5 3.4 9.6 10.3 10.6.6.1 1.1-.3 1.2-.9s-.3-1.1-.9-1.2c-5.6-.8-7-4.9-8.5-9.2-.6-1.6-1.1-3.2-2-4.7 2.5-1.6 3.5-3.5 2.7-5.5-.6-1.5-1.5-2.1-2.2-2.4-.7-.2-1.3-.2-1.9-.2-.1-1-.5-2.2-1.7-3-1.5-1.1-3.2-1-4.4-.7-.7-1.9-2.3-3.2-4.4-3.6-2.9-.5-5.6 1-7.1 3.7-2 3.8.6 7.2 2.4 8.9a13.85 13.85 0 00-3.5 4.8c-3.3.9-7 2.1-6.6 4.9.2 1.5 1.8 2.6 3.5 3.2l-.2.2c-1.4 1.2-2.4 2.5-3.1 3.6-1.3 2.3-.8 4-.2 5 1 1.6 2.6 2.4 4.7 2.4h.3c.4 2.6 1 5.1 1.7 7.3.2.6.8.9 1.4.7.8 0 1.1-.6.9-1.2zm1-34.5c-.9-1.5-1-2.9-.3-4.3 1.2-2.3 3.3-2.8 4.8-2.6 1.3.2 2.7 1.1 3 3 0 .4.3.7.6.8.3.2.7.2 1 0 0 0 1.9-1 3.3 0 1.3.9.8 2.3.7 2.5-.2.4-.1.9.3 1.2.3.3.9.4 1.3.1.3-.2 1.3-.6 1.9-.3.1.1.6.2.9 1.1.1.4.2 1-.6 1.8-.4.4-.9.8-1.3 1.1-1.7-2.1-4.3-3.6-8.5-3.5-1 0-2.9.2-4.9 1.4-.8-.4-1.6-1.3-2.2-2.3zm-7.8 13.2c-.1-.7 1.8-1.5 3.5-2.1-.3 1.2-.6 2.4-.8 3.7-1.7-.5-2.6-1.2-2.7-1.6zm-.2 11.1c-.8-1.3.3-3.1 1.4-4.4.4-.5.8-.9 1.2-1.3-.1 2.2 0 4.5.3 7-1.3.1-2.3-.4-2.9-1.3zM133 89.7c-.1-.3-.6-2.3-1.8-4.3-1.8-3-4.4-4.4-7.4-4.3-3 .2-4.6 2.4-6.4 4.8-2.2 2.9-4.4 6-9.5 6.5-.6.1-1 .6-1 1.2.1.6.6 1 1.2 1 6-.7 8.8-4.4 11-7.4 1.6-2.1 2.8-3.8 4.8-4 2.2-.1 4 1 5.4 3.2 1.1 1.8 1.6 3.7 1.6 3.7v.1c1.3 4.7 1.4 9.2.2 13.5-1 3.8-3 7.3-6 10.5-.4.4-.4 1.1 0 1.5s1.1.4 1.5 0c3.2-3.4 5.4-7.2 6.5-11.4 1.3-4.7 1.2-9.6-.1-14.6z"/><path d="M109.7 111.5c-6.4 1.5-11.6.4-15.4-3.3-2.9-2.8-3.9-6.1-3.9-6.2-.2-.6-.8-.9-1.3-.7-.6.2-.9.8-.7 1.3 0 .2 1.1 3.9 4.4 7.1 3.6 3.5 7.8 4.6 11.7 4.6 2.1 0 4-.3 5.8-.7 7.8-1.9 11.8-8.6 11.1-13.8-.1-.6-.6-1-1.2-.9s-1 .6-.9 1.2c.3 2-.4 4.5-1.9 6.5-1.4 1.8-3.7 4-7.7 4.9zM80.8 84.7c0 1.5 1 2.8 2.2 2.8s2.2-1.2 2.2-2.8c0-1.5-1-2.8-2.2-2.8s-2.2 1.2-2.2 2.8z"/></svg>