<svg xmlns="http://www.w3.org/2000/svg" width="200" height="200"><g fill-rule="evenodd" clip-rule="evenodd"><path d="M53.1 104.8c0 1.2-.1 2.4-.4 3.5-.3 1.1-.7 2-1.3 2.8s-1.4 1.5-2.3 1.9-2.1.7-3.5.7c-1 0-1.8-.1-2.7-.3-.8-.2-1.5-.6-2.1-1s-1.1-1-1.4-1.6c-.3-.6-.5-1.3-.5-2 0-.9.3-1.6.8-2.2s1.3-.8 2.3-.8c.5 0 .8.1 1.1.2s.5.3.7.5.3.4.4.7c.1.2.1.5.1.6 0 .3 0 .6-.1.9-.1.2-.2.5-.3.7s-.2.5-.3.8-.1.6-.1 1c0 .7.2 1.2.6 1.5.4.3 1 .4 1.6.4.9 0 1.6-.3 2.1-1 .5-.6.8-1.8.8-3.4V81.6h-5V81h14.5v.6h-5v23.2z"/><path d="M81.5 113.5H67.6v-.7h5L62.5 86.7l-9.8 26.1h4.9v.7h-9.8v-.7h4.1L64 80.7h1.2l12.2 32.1h4.1z"/><path d="M75.3 112.8h5V82h-5v-.6h25.8v7.8h-.5c-.4-1.2-.8-2.2-1.3-3.1s-1-1.6-1.6-2.3c-.6-.6-1.4-1.1-2.3-1.4s-1.9-.5-3.2-.5h-7.5v14.6h2.9a9 9 0 002.5-.3c.7-.2 1.3-.5 1.8-1s.9-1.2 1.3-2c.3-.9.7-2 1-3.3h.5v14h-.5c-.2-.9-.4-1.7-.7-2.5-.2-.8-.5-1.5-.9-2.2a4.63 4.63 0 00-4.2-2.1h-3.7v15.6h5v.6H75.3v-.5z"/><path d="M110.3 95.9h4.2c.8 0 1.6-.1 2.3-.3.7-.2 1.3-.6 1.8-1.1s.9-1.2 1.2-2.1c.3-.9.4-2 .4-3.4 0-1.6-.2-2.8-.6-3.8-.4-.9-.9-1.7-1.6-2.1-.6-.5-1.4-.8-2.2-.9-.8-.2-1.6-.2-2.4-.2h-1.6c-.6 0-1 .1-1.4.1v13.8h-.1zm-9.5 16.9h5V82h-5v-.6h9.7c.4 0 .7 0 1.1-.1h2.2c1.8 0 3.3.1 4.7.3 1.4.2 2.6.8 3.8 1.7 1.1.8 1.8 1.7 2.2 2.8.4 1 .7 2 .7 2.9 0 .5-.1 1-.2 1.7-.2.7-.5 1.4-1.1 2.2-.6.7-1.4 1.4-2.4 2-1.1.6-2.5 1-4.2 1.2v.1c.5.1 1.1.2 2 .3s1.7.4 2.5.8c.9.4 1.6.9 2.4 1.6.7.6 1.2 1.5 1.5 2.5.2.6.3 1.3.4 2.1.1.8.1 1.6.2 2.4 0 .8.1 1.6.1 2.3 0 .8.1 1.4.2 1.9.2.8.5 1.5.9 2.1s1.4 1 1.9 1h1.2v.6h-3c-1.2 0-1.7-.2-2.5-.5s-1.4-.7-1.9-1.3c-.5-.6-.8-1.3-1.1-2.2-.2-.9-.4-1.9-.5-3l-.3-4.1c-.1-1.5-.4-2.7-.9-3.5s-1-1.5-1.7-1.8-1.3-.6-2-.7-1.3-.1-1.8-.1h-4.5v16.3h5v.6h-14.5l-.1-.7z"/><path d="M161.1 113.8h-13.9v-.7h5l-10-26.1-9.9 26.1h4.9v.7h-9.7v-.7h4L143.7 81h1.1l12.3 32.1h4z"/><path d="M138.5 111.2c0 1.4 1.2 2.6 2.6 2.6 1.6 0 2.7-1.2 2.7-2.6 0-1.6-1.2-2.7-2.7-2.7-1.4-.1-2.6 1.1-2.6 2.7zM59.6 111.2c0 1.4 1.2 2.6 2.6 2.6 1.6 0 2.7-1.2 2.7-2.6 0-1.6-1.2-2.7-2.7-2.7-1.4-.1-2.6 1.1-2.6 2.7zM102.6 119.1h.3c.1 0 .2-.1.2-.1.1 0 .1-.1.2-.2 0-.1.1-.1.1-.2s0-.2-.1-.3c-.1-.1-.1-.2-.2-.2-.1-.1-.2-.1-.3-.2-.1-.1-.2-.1-.3-.2-.1-.1-.2-.1-.4-.2-.1-.1-.2-.1-.3-.2-.1-.1-.2-.2-.2-.3-.1-.1-.1-.2-.1-.4 0-.1 0-.3.1-.4 0-.1.1-.2.2-.3.1-.1.2-.1.3-.2.1 0 .3-.1.5-.1s.3 0 .4.1c.1 0 .2.1.3.2.1.1.2.2.2.3s.1.2.2.3l-.2.1c0-.1-.1-.2-.1-.3-.1-.1-.1-.2-.2-.2-.1-.1-.2-.1-.3-.1h-.7c-.1 0-.2.1-.2.1-.1 0-.1.1-.1.2v.2c0 .1 0 .2.1.2s.1.1.2.2.2.1.3.2c.1.1.2.1.3.2.1.1.3.1.4.2s.2.2.3.2c.1.1.2.2.2.3.1.1.1.2.1.4 0 .1 0 .3-.1.4s-.1.2-.2.3c-.1.1-.2.2-.4.2-.1.1-.3.1-.5.1s-.3 0-.4-.1c-.1 0-.2-.1-.3-.2-.1-.1-.2-.2-.2-.3-.1-.1-.1-.2-.2-.3l.2-.1c0 .1.1.2.1.3.1.1.1.2.2.2.1.1.2.1.3.1.1.1.2.1.3.1zM105.9 115.7l1.6 3.5h-.5l-.5-1.2H105l-.5 1.2h-.3l1.7-3.5zm-.8 2.2h1.3l-.7-1.4-.6 1.4zM108.1 115.8h.5v3.2h1.8v.3h-2.3zM112.7 119.3c-.3 0-.5 0-.7-.1s-.4-.2-.6-.4c-.2-.2-.3-.4-.4-.6s-.1-.5-.1-.7 0-.5.1-.7.2-.4.4-.6c.2-.2.4-.3.6-.4s.5-.1.7-.1c.3 0 .5 0 .7.1s.4.2.6.4c.2.2.3.4.4.6s.1.4.1.7c0 .3 0 .5-.1.7s-.2.4-.4.6c-.2.2-.4.3-.6.4s-.5.1-.7.1zm0-.1c.2 0 .4 0 .5-.1.2-.1.3-.2.4-.3.1-.1.2-.3.2-.5.1-.2.1-.4.1-.7 0-.2 0-.5-.1-.7s-.1-.4-.2-.5-.2-.3-.4-.3c-.2-.1-.3-.1-.5-.1s-.4 0-.6.1-.3.2-.4.3c-.1.1-.2.3-.2.5-.1.2-.1.4-.1.7 0 .2 0 .5.1.7s.1.4.2.5.2.3.4.3.4.1.6.1zM115.4 115.8h.3l2.3 2.6v-2.6h.2v3.5h-.1l-2.5-2.8v2.8h-.2zM121.6 115.8h.4v1.5l1.9-1.5h.4l-1.8 1.5 2.2 2h-.6l-2.1-1.8v1.8h-.4zM126.7 119.3c-.3 0-.5 0-.7-.1s-.4-.2-.6-.4c-.2-.2-.3-.4-.4-.6s-.1-.5-.1-.7 0-.5.1-.7.2-.4.4-.6c.2-.2.4-.3.6-.4s.5-.1.7-.1c.3 0 .5 0 .7.1s.4.2.6.4c.2.2.3.4.4.6s.1.4.1.7c0 .3 0 .5-.1.7s-.2.4-.4.6c-.2.2-.4.3-.6.4s-.4.1-.7.1zm0-.1c.2 0 .4 0 .5-.1.2-.1.3-.2.4-.3.1-.1.2-.3.2-.5.1-.2.1-.4.1-.7 0-.2 0-.5-.1-.7s-.1-.4-.2-.5-.2-.3-.4-.3c-.2-.1-.3-.1-.5-.1s-.4 0-.6.1-.3.2-.4.3c-.1.1-.2.3-.2.5-.1.2-.1.4-.1.7 0 .2 0 .5.1.7s.1.4.2.5.2.3.4.3.4.1.6.1zM130.5 119.1h.3c.1 0 .2-.1.2-.1l.2-.2c0-.1.1-.1.1-.2s0-.2-.1-.3c-.1-.1-.1-.2-.2-.2-.1-.1-.2-.1-.3-.2s-.2-.1-.3-.2-.2-.1-.4-.2c-.1-.1-.2-.1-.3-.2s-.2-.2-.2-.3c-.1-.1-.1-.2-.1-.4 0-.1 0-.3.1-.4 0-.1.1-.2.2-.3.1-.1.2-.1.3-.2.1 0 .3-.1.5-.1s.3 0 .4.1.2.1.3.2.2.2.2.3c.1.1.1.2.2.3l-.2.1c0-.1-.1-.2-.1-.3-.1-.1-.1-.2-.2-.2-.1-.1-.2-.1-.3-.1h-.7c-.1 0-.2.1-.2.1-.1 0-.1.1-.1.2v.2c0 .1 0 .2.1.2l.2.2c.1.1.2.1.3.2s.2.1.3.2.2.1.4.2c.1.1.2.2.3.2.1.1.2.2.2.3.1.1.1.2.1.4 0 .1 0 .3-.1.4s-.1.2-.2.3c-.1.1-.2.2-.4.2-.1.1-.3.1-.5.1s-.3 0-.4-.1c-.1 0-.2-.1-.3-.2s-.2-.2-.2-.3c-.1-.1-.1-.2-.2-.3l.2-.1c0 .1.1.2.1.3.1.1.1.2.2.2.1.1.2.1.3.1.1.1.2.1.3.1zM132.5 115.8h.5l1.4 2.7c.2-.3.4-.7.5-1 .1-.1.2-.3.2-.4.1-.2.2-.3.2-.4.1-.1.2-.3.2-.4.1-.1.1-.3.2-.4h.5v3.5h-.5v-2.8l-1.5 2.8h-.1l-1.5-3v3h-.3v-3.6h.2zM139.7 115.8v.2h-1.9v1.3h1.3v.2h-1.3v1.5h1.9v.3h-2.3v-3.5zM143.1 115.8v.2h-1.3v3.3h-.5V116h-1.2v-.2zM143.8 115.8l1.2 1.8 1.2-1.8h.3l-1.4 2v1.5h-.4v-1.5l-1.4-2zM147.5 117.5c0 .2 0 .5.1.6.1.2.2.4.3.5s.3.2.5.3c.2.1.4.1.6.1.1 0 .2 0 .3-.1.1 0 .2-.1.3-.2l.3-.3c.1-.1.1-.2.2-.3l.2.2-.3.3-.3.3c-.1.1-.3.1-.4.2-.2 0-.3.1-.5.1-.3 0-.5 0-.8-.1-.2-.1-.4-.2-.6-.4s-.3-.4-.4-.6c-.1-.2-.1-.4-.1-.7 0-.2 0-.3.1-.5 0-.2.1-.3.2-.4.1-.1.2-.3.3-.4s.2-.2.4-.3c.1-.1.3-.1.5-.2.2 0 .3-.1.5-.1s.3 0 .5.1c.2 0 .3.1.4.2l.3.3.3.3-.2.2c-.1-.1-.1-.2-.2-.3l-.3-.3c-.1-.1-.2-.1-.3-.2-.1 0-.2-.1-.3-.1-.2 0-.4 0-.6.1-.2.1-.3.2-.5.3-.1.1-.2.3-.3.5s-.2.7-.2.9zM154 115.8l-2.5 3.2h2.4v.3h-3.1v-.1l2.4-3.2h-2.4v-.2zM154.5 115.8h.3l2.3 2.6v-2.6h.3v3.5h-.2l-2.4-2.8v2.8h-.3zM158.4 115.8l1.2 1.8 1.2-1.8h.3l-1.3 2v1.5h-.5v-1.5l-1.4-2z"/></g></svg>