<svg xmlns="http://www.w3.org/2000/svg" width="200" height="200"><g fill="#fabdc5"><path d="M93.6 81.1c-8.2 1.1-15.9 4.3-22.8 9.4-2.3 1.8-7.2 6.3-7.2 6.7 0 .1 1 1.2 2.1 2.4l2.1 2.1 2.3-2.2c5.7-5.7 13.5-10 20.7-11.4 3.9-.8 5.7-.9 9.5-.9 6.8 0 12.1 1.3 18.3 4.4 4.2 2.1 7.2 4.2 10.6 7.5l2.7 2.6 2.2-2.2 2.2-2.2-2.1-2.1c-1.2-1.2-2.9-2.8-3.9-3.6-1-.8-2-1.6-2.2-1.7-.9-.7-4.9-3.1-6.9-4.1a49.4 49.4 0 00-14-4.4c-.7-.1-1.4-.2-1.7-.3-.9-.4-9.6-.3-11.9 0z"/><path d="M93.8 93.7c-7.6 1.4-14.5 5-19.8 10.6-.8.9-1.5 1.7-1.5 1.8s1 1.2 2.2 2.4l2.1 2.1 1-1.1c6-6.6 14.1-10 22.6-9.8 3.1.1 3.7.1 6.1.7a29.6 29.6 0 0114.6 8.4l1.8 1.9 2.3-2.3 2.3-2.3-2.1-2.1c-5.3-5.3-11.1-8.4-18.5-10-3.3-.8-9.6-.9-13.1-.3z"/><path d="M96.5 105.5c-.5.1-1.3.2-1.7.3-4.4.8-10.3 4.3-13.2 7.9l-.7.9 2.3 2.3 2.3 2.3.9-1.1c2.1-2.7 5.9-5.1 9.3-6 4.6-1.2 10.1-.2 14.1 2.6 1.3.9 4.4 4 4.4 4.4 0 .1 1-.7 2.3-2s2.3-2.4 2.3-2.5-.8-1-1.7-2c-4.6-4.7-10.7-7.3-17.2-7.3-1.4 0-2.9.1-3.4.2z"/></g></svg>