<svg xmlns="http://www.w3.org/2000/svg" width="200" height="200"><path d="M63.9 114.3h.8l.7 2.4.8-2.4h.7l.8 2.4.7-2.4h.8l-1.1 3.5h-.7l-.8-2.4-.8 2.4H65l-1.1-3.5zm6.8 3l.3-.5c.3.3.7.4 1.1.4.3 0 .5-.1.5-.4s-.4-.4-.8-.5-1.1-.3-1.1-1c0-.6.5-1.1 1.1-1.1h.1c.4 0 .9.1 1.3.4l-.3.6c-.3-.2-.6-.3-1-.3-.3 0-.5.1-.5.3 0 .2.4.3.8.5.4.1 1.1.4 1.1 1 0 .7-.6 1.1-1.3 1.1-.4 0-.9-.2-1.3-.5zm4.9-3h.8v.6c.3-.4.7-.6 1.2-.6.9 0 1.6.8 1.6 1.7v.1c.1.9-.6 1.7-1.5 1.8h-.1c-.5 0-.9-.2-1.2-.6v1.6h-.8v-4.6zm2.7 1.8c.1-.6-.3-1.1-.9-1.1h-.2c-.6 0-1 .5-1 1.1 0 .6.4 1.1.9 1.1h.1c.7-.1 1.1-.5 1.1-1.1zm2.7-.1c0-1 .8-1.8 1.8-1.8s1.8.8 1.8 1.8-.8 1.8-1.8 1.8c-.9 0-1.7-.8-1.8-1.8zm2.9 0c0-.6-.4-1.1-1-1.1a1 1 0 00-1 1v.1c0 .6.4 1.1 1 1.1s1-.4 1-1.1c0 .1 0 0 0 0zm-.7-3.2l.7.3-.8.7h-.6l.7-1zm3.7.2h.8v4.8h-.8V113zm3.1 1.3h.8v.5c.2-.4.6-.6 1.1-.6.7 0 1.2.5 1.2 1.1V117.7h-.8v-2c0-.5-.3-.8-.7-.8-.4 0-.8.4-.8.8v2H90v-3.4zm5.2 1.7c0-1 .8-1.8 1.8-1.8s1.8.8 1.8 1.8-.8 1.8-1.8 1.8-1.8-.7-1.8-1.8c0 .1-.1 0 0 0zm2.8 0c0-.6-.4-1.1-1-1.1a1 1 0 00-1 1v.1c0 .6.4 1.1 1 1.1s1-.4 1-1.1c0 .1 0 0 0 0zm3.1.8V115h-.4v-.6h.4v-1h.8v1h.9v.7h-.9v1.7c0 .2.1.4.3.4h.1c.2 0 .3 0 .5-.1v.6c-.2.1-.5.2-.7.2-.5.1-.9-.3-1-.7v-.4zm5.9.9v-.4c-.3.3-.7.5-1.1.5-.6.1-1.2-.4-1.2-1v-.1c0-.8.6-1.1 1.4-1.1.3 0 .6 0 1 .1 0-.5-.3-.7-.8-.7-.3 0-.7.1-1 .2l-.2-.6c.4-.2.9-.3 1.3-.3.7-.1 1.4.4 1.5 1.1v2.3h-.9zm0-1.4c-.3-.1-.5-.1-.8-.1-.5 0-.8.2-.8.5s.3.5.7.5c.5 0 .9-.3.9-.7v-.2zm6.3-2h.8v.8c.2-.5.7-.9 1.2-.8v.8c-.7 0-1.2.5-1.2 1.4v1.3h-.8v-3.5zm3.7 1.7c0-1 .8-1.8 1.8-1.8s1.8.8 1.8 1.8-.8 1.8-1.8 1.8-1.8-.7-1.8-1.8c0 .1 0 0 0 0zm2.9 0c0-.6-.4-1.1-1-1.1a1 1 0 00-1 1v.1c0 .6.4 1.1 1 1.1.5 0 1-.5 1-1.1 0 .1 0 0 0 0zm2.6 1.3l.3-.5c.3.3.7.4 1.1.4.3 0 .5-.1.5-.4s-.4-.4-.8-.5-1.1-.3-1.1-1c0-.6.5-1.1 1.1-1.1h.1c.4 0 .9.1 1.3.4l-.3.6c-.3-.2-.6-.3-1-.3-.3 0-.5.1-.5.3 0 .2.4.3.8.5s1.1.4 1.1 1c0 .7-.6 1.1-1.3 1.1-.4 0-.9-.2-1.3-.5zm1.8-4.5l.7.3-.8.7h-.6l.7-1zm3.1.2h.8v4.8h-.8V113zm3.1 0h.8v.7h-.8v-.7zm0 1.3h.8v3.4h-.8v-3.4zm3.2 0h.8v.5c.2-.4.6-.6 1.1-.6.7 0 1.2.5 1.2 1.1V117.7h-.8v-2c0-.5-.3-.8-.7-.8s-.8.4-.8.8v2h-.8v-3.4zm5.3 0h.8v.5c.2-.4.6-.6 1.1-.6.7 0 1.2.5 1.2 1.1V117.7h-.8v-2c0-.5-.3-.8-.7-.8s-.8.4-.8.8v2h-.8v-3.4zm5.2 1.7c0-.9.7-1.7 1.6-1.8h.1c.9 0 1.7.8 1.7 1.7v.4H145c0 .5.5.9 1 .9.4 0 .7-.1.9-.4l.5.4c-.3.4-.9.7-1.4.6-.9 0-1.7-.7-1.8-1.6v-.2zm2.5-.2c0-.5-.4-.9-.9-.9s-.9.4-.9.9h1.8zm2.3 3v-.6h.2c.2 0 .4-.1.4-.4v-3.4h.8v3.5c.1.5-.3.9-.8 1h-.2c-.1-.1-.2-.1-.4-.1zm.6-5.8h.8v.7h-.8v-.7zm6.4 1.3h.8v.5c.2-.4.6-.6 1-.6s.8.2 1 .6c.3-.4.7-.6 1.2-.6.6 0 1.2.5 1.2 1.1V117.7h-.8v-2c0-.5-.3-.8-.7-.8s-.7.3-.7.9v1.9h-.8v-2c0-.5-.3-.8-.7-.8s-.7.3-.7.9v1.9h-.8v-3.4zm7.3 1.7c0-1 .8-1.8 1.8-1.8s1.8.8 1.8 1.8-.8 1.8-1.8 1.8c-.9 0-1.8-.7-1.8-1.8 0 .1 0 0 0 0zm2.9 0c0-.6-.4-1.1-1-1.1a1 1 0 00-1 1v.1c0 .6.4 1.1 1 1.1.5 0 1-.4 1-1.1 0 .1 0 0 0 0zm2.7 0c0-1 .8-1.8 1.8-1.8.5 0 1 .2 1.4.6l-.5.5c-.2-.3-.5-.4-.9-.4-.6 0-1 .5-1 1.1 0 .6.4 1.1 1 1.1.3 0 .7-.2.9-.4l.5.5c-.6.8-1.8.9-2.5.2-.4-.4-.7-.8-.7-1.4zm5.1 2.6l.3-.6c.1.1.3.1.5.1s.4-.1.5-.4l-1.4-3.4h.8l1 2.6.9-2.6h.8l-1.4 3.5c-.3.7-.6 1-1.1 1a2 2 0 01-.9-.2zM35.2 90.8l2 2.1 2-2.1c2.9-2.8 7.5-2.8 10.3 0l.1.1c2.8 2.9 2.7 7.4-.1 10.3l-3.1 3.1-8.2 8.3c-.6.6-1.5.6-2.1 0l-8.3-8.3-3.1-3.1a7.36 7.36 0 010-10.3c3-2.9 7.6-2.9 10.5-.1zm1 5.2l-3.1-3.1c-1.7-1.7-4.5-1.7-6.2 0s-1.7 4.5 0 6.2l3.1 3.1 7.2 7.2 7.2-7.2 3.1-3.1a4.5 4.5 0 00.1-6.2l-.1-.1a4.4 4.4 0 00-6.2 0L38.2 96c-.5.5-1.5.5-2 0z" fill="#e53ca1"/><path d="M32.1 87.7l-4.1-4c-.6-.6-.6-1.5 0-2 .6-.6 1.5-.6 2 0l3.1 3 3.1-3c.3-.3.6-.4 1-.4s.7.1 1 .4l3.1 3 3.1-3c.6-.6 1.5-.6 2 0 .6.6.6 1.5 0 2l-4.1 4c-.3.3-.6.4-1 .4s-.7-.1-1-.4l-3.1-3-3.1 3c-.3.3-.6.4-1 .4s-.8-.2-1-.4z" fill-rule="evenodd" clip-rule="evenodd" fill="#2a9e45"/><path d="M93.9 97.3c0-2.4-1.5-6.2-5.6-6.2-3.3 0-5.7 2.8-5.7 6.7 0 4 2.6 6.8 6.1 6.8 1.5 0 3-.5 4-1.6.3-.3.4-.7.4-1 .1-.7-.4-1.3-1.1-1.4h-.1c-.3 0-.5.1-.7.3-.7.6-1.6.9-2.5.9-1.6 0-2.7-1-3-2.7V99h6.7c.8 0 1.5-.7 1.5-1.7 0 .1 0 0 0 0zm-8.3-1c.3-1.9 1.3-2.5 2.7-2.5 1.4 0 2.4.6 2.6 2.4v.1h-5.3zm37.1 1c0-2.4-1.5-6.2-5.6-6.2-3.3 0-5.7 2.8-5.7 6.7 0 4 2.6 6.8 6.1 6.8 1.5 0 3-.5 4-1.6.3-.3.4-.6.4-1 .1-.7-.4-1.3-1.1-1.4-.3 0-.5.1-.7.3-.7.6-1.6.9-2.5.9-1.6 0-2.7-1-3-2.7V99h6.8c.8-.1 1.4-.8 1.3-1.7zm-8.3-.9c.3-1.9 1.3-2.5 2.7-2.5s2.4.6 2.6 2.4v.1h-5.3zm35.4-5.3c-.8 0-1.5.7-1.5 1.5v7.1c0 1.4-1.2 2.5-2.6 2.5-1.4 0-2.5-1.2-2.5-2.6v-7c-.1-.8-.8-1.4-1.6-1.4-.7.1-1.3.6-1.4 1.4v7.6c0 .3 0 .6.1.9 0 .1 0 .2.1.3 0 .1.1.3.1.5s.1.2.1.3.1.2.2.4c.1.1.1.2.2.3s.1.2.2.3c.1.1.1.2.2.2.1.1.1.2.2.2l.2.2.2.2.3.2.2.1.3.1h.1c1 .3 2 .5 3 .4 1 0 1.9-.4 2.5-1.1.2.8 1 1.3 1.8 1.1.7-.2 1.1-.7 1.2-1.4V92.6c-.1-.9-.8-1.5-1.6-1.5zm25.9 0c-.8 0-1.5.7-1.5 1.5v7.2c0 1.4-1.2 2.5-2.6 2.5-1.4 0-2.5-1.2-2.5-2.6v-7c.1-.8-.6-1.5-1.4-1.6-.8-.1-1.5.6-1.6 1.4v7.9c0 .3 0 .6.1.9 0 .1 0 .2.1.3 0 .1.1.3.1.5s.1.2.1.3.1.2.2.4c.1.1.1.2.2.3.1.1.1.2.2.3.1.1.1.2.2.2.1.1.1.2.2.2l.2.2.2.2.3.2.2.1.3.1h.1c1 .3 2 .5 3 .4 1 0 1.9-.4 2.5-1.1.1.8.9 1.3 1.7 1.2.7-.1 1.2-.8 1.2-1.5v-11c0-.9-.6-1.5-1.5-1.5zm-69.1 1.6l-.2-.2-.3-.2-.1-.1a4.8 4.8 0 00-3.3-1c-3.1 0-5.7 2.9-5.7 6.7 0 .6.1 1.3.2 1.9v.2a5.96 5.96 0 001.7 3.1l.3.3c.9.8 2.1 1.3 3.3 1.3.8 0 1.6-.2 2.3-.6-.1 1.3-.3 2.1-.7 2.4-.9.6-2.7.3-3.6-.2-.4-.3-.9-.5-1.4-.6-.6 0-1.1.3-1.3.8 0 .1-.1.1-.1.2s0 .1-.1.2c-.1.3-.1.7.1 1l.1.1c.3.4.7.8 1.1 1.1l.1.1c1.7.9 3.7 1 5.5.4l.2-.1.4-.2c.5-.2.9-.5 1.2-.9.3-.4.6-.8.7-1.2 0-.1.1-.2.1-.3l.3-.9c.2-.9.3-1.8.3-2.7v-5.7c.5-1.9-.1-3.6-1.1-4.9zm-1.5 4.9v.9c.1.9-.2 1.8-.6 2.5l-.3.3c-.4.3-.8.5-1.3.5-1.5 0-2.8-1.7-2.8-3.9s1.2-3.9 2.8-3.9c.5 0 .9.2 1.3.5l.3.3c.5.7.7 1.6.6 2.5v.3zm30.2-4.9l-.2-.2-.3-.3-.1-.1h-.1a4.8 4.8 0 00-3.3-1c-3.1 0-5.7 2.9-5.7 6.7 0 .6.1 1.3.2 1.9v.2c.1.4.2.7.3 1 .3.8.8 1.5 1.4 2.2l.3.3c.9.8 2.1 1.3 3.3 1.3.8 0 1.6-.2 2.3-.6-.1 1.3-.3 2.1-.7 2.4-.9.6-2.7.3-3.6-.2-.4-.3-.9-.5-1.4-.6-.6 0-1.1.3-1.3.8 0 .1-.1.1-.1.2s0 .1-.1.2c-.1.3-.1.7.1 1l.1.1c.3.5.7.8 1.2 1.1l.2.1c1.7.9 3.7 1 5.5.4l.2-.1.4-.2c.4-.2.8-.5 1.1-.9s.6-.8.8-1.3c0-.1.1-.2.1-.3l.3-.9c.2-.9.3-1.8.3-2.7v-5.8c.4-1.7-.2-3.3-1.2-4.7zm-1.5 4.9v.9c.1.9-.1 1.8-.6 2.5l-.3.3c-.4.3-.8.5-1.3.5-1.5 0-2.8-1.7-2.8-3.9 0-2.1 1.2-3.9 2.8-3.9.5 0 1 .2 1.3.5l.3.3c.5.7.7 1.6.6 2.5v.3zM79 99.1v-6.5c0-.8-.7-1.5-1.5-1.5s-1.5.7-1.5 1.5v7.4c0 1-.8 1.7-1.7 1.7-1 0-1.7-.8-1.7-1.7v-7.4c0-.8-.7-1.5-1.5-1.5s-1.5.7-1.5 1.5v7.5c0 .9-.8 1.7-1.7 1.7-.4 0-.9-.2-1.2-.4l-.1-.1-.1-.2c-.2-.3-.4-.7-.4-1v-.1l-.1-1.7v-5.7c.1-.8-.6-1.5-1.4-1.6-.8-.1-1.5.6-1.6 1.4v7.9c0 .3 0 .5.1.8.2 1.3 1.1 2.3 2.2 2.9.5.3 1.1.5 1.8.6 1.4.2 2.9-.2 4-1.2.9.8 2 1.2 3.2 1.3 1.4.1 2.8-.6 3.7-1.7.8-1.1 1.2-2.5 1-3.9zm84.5-7c-.2-.8-1-1.2-1.8-1l-.9.3c-.8.4-1.5.9-2.2 1.5l-.3.3v-.7c0-.8-.7-1.5-1.5-1.5s-1.5.7-1.5 1.5v10.6c0 .8.7 1.5 1.5 1.5s1.5-.7 1.5-1.5v-5.4c.8-1.8 2.3-3.2 4.2-3.8.8-.2 1.2-1 1-1.8z" fill="#2a9e45"/></svg>