<?xml version="1.0" standalone="no"?>
<!DOCTYPE svg PUBLIC "-//W3C//DTD SVG 20010904//EN"
 "http://www.w3.org/TR/2001/REC-SVG-20010904/DTD/svg10.dtd">
<svg version="1.0" xmlns="http://www.w3.org/2000/svg"
 width="700.000000pt" height="700.000000pt" viewBox="0 0 700.000000 700.000000"
 preserveAspectRatio="xMidYMid meet">
<metadata>
Created by potrace 1.11, written by Peter Selinger 2001-2013
</metadata>
<g transform="translate(0.000000,700.000000) scale(0.100000,-0.100000)"
fill="#000000" stroke="none">
<path d="M1515 6993 c-194 -43 -359 -174 -450 -355 -54 -108 -69 -176 -62
-292 8 -161 76 -311 212 -469 l73 -85 -59 -58 c-79 -78 -162 -192 -224 -306
-44 -81 -54 -93 -85 -102 -112 -30 -287 -94 -362 -133 -158 -81 -227 -170
-228 -288 0 -122 79 -221 239 -299 l89 -43 -80 -79 c-327 -323 -385 -622 -164
-839 92 -90 226 -144 357 -145 l46 0 12 -77 c22 -138 80 -389 121 -517 47
-145 64 -166 139 -166 l47 0 37 -91 37 -91 -29 -27 c-43 -41 -48 -81 -16 -146
133 -273 410 -616 660 -819 322 -262 722 -451 1148 -541 60 -13 110 -25 113
-28 2 -2 3 -128 2 -279 l-3 -275 -254 88 c-139 49 -262 89 -273 89 -60 0 -115
-66 -104 -126 10 -51 51 -76 220 -135 86 -29 156 -56 156 -59 0 -3 -71 -25
-157 -50 -190 -54 -218 -73 -218 -145 0 -40 5 -51 33 -76 21 -19 43 -29 64
-29 17 0 128 29 247 64 119 36 266 79 326 97 61 18 118 37 128 43 44 28 47 55
47 420 l0 346 183 -6 c208 -8 402 6 612 41 77 13 141 22 143 21 1 -2 1 -133 0
-293 l-3 -289 -250 87 c-137 49 -260 88 -273 88 -39 1 -83 -28 -98 -66 -18
-43 -5 -93 31 -122 14 -10 94 -42 180 -72 85 -29 155 -55 155 -58 0 -3 -74
-28 -165 -55 -90 -27 -171 -56 -179 -65 -8 -9 -20 -29 -26 -45 -22 -60 30
-136 93 -136 25 0 250 64 625 176 125 38 116 2 122 493 l5 414 80 24 c365 110
742 293 1035 503 191 136 222 178 185 250 -9 17 -15 33 -13 34 2 1 33 30 70
65 67 63 68 63 92 47 14 -9 45 -16 68 -16 40 0 47 4 112 73 148 156 333 430
428 634 94 202 159 411 199 638 30 168 37 499 16 685 -91 780 -400 1232 -872
1276 -106 10 -206 -9 -304 -57 -118 -58 -218 -157 -401 -399 -82 -108 -179
-229 -217 -270 -173 -187 -366 -296 -595 -336 -51 -8 -105 -20 -120 -26 -37
-14 -61 -54 -61 -102 0 -32 6 -45 32 -68 26 -23 40 -28 86 -28 106 0 301 53
430 118 219 109 358 240 613 576 228 302 308 366 467 374 320 17 563 -265 680
-788 47 -208 59 -323 60 -550 0 -261 -13 -359 -67 -495 -370 -940 -1434 -1669
-2607 -1785 -150 -15 -436 -12 -583 5 -946 110 -1687 642 -2066 1482 -123 271
-161 432 -204 863 -17 167 -17 684 0 820 53 428 171 727 366 929 171 177 348
258 586 268 283 12 497 -72 639 -249 76 -94 170 -294 267 -563 47 -132 112
-294 143 -361 172 -361 396 -548 747 -624 78 -17 103 -19 130 -10 75 25 99
113 47 170 -23 24 -42 33 -103 44 -239 45 -405 152 -539 349 -58 85 -138 266
-230 520 -50 137 -111 292 -136 344 -25 53 -44 97 -43 98 95 56 196 163 241
255 28 57 32 75 32 145 0 69 -5 89 -32 147 -65 138 -165 209 -301 214 l-77 3
-7 40 c-11 63 -42 125 -89 176 -112 122 -243 165 -424 142 l-60 -7 -33 65
c-63 122 -216 234 -360 264 -51 11 -206 13 -247 4z"/>
<path d="M1835 5201 c-144 -67 -186 -298 -80 -437 60 -78 182 -96 265 -39 120
83 138 316 32 429 -34 37 -97 66 -142 66 -19 0 -53 -9 -75 -19z"/>
<path d="M5358 3581 l-33 -29 3 -100 c12 -423 -305 -839 -760 -998 -366 -128
-832 -137 -1138 -21 -309 117 -574 361 -736 680 -24 48 -54 111 -65 140 -39
103 -64 127 -130 127 -42 0 -99 -56 -99 -97 0 -65 81 -250 173 -398 398 -639
1096 -886 1922 -679 529 133 927 522 1030 1009 19 91 20 284 1 329 -30 71
-110 89 -168 37z"/>
</g>
</svg>
