<svg xmlns="http://www.w3.org/2000/svg" width="200" height="200"><path d="M131.9 95.1c.3 0 .5-.3.5-.5a33.4 33.4 0 00-64.4-.1c0 .2 0 .5.3.5H72.1c.2 0 .3-.2.3-.3 3.7-12.3 15-20.6 27.8-20.5 12.8 0 24 8.4 27.8 20.5 0 .2.2.3.3.3l3.6.1zm-19.8 30.8c-2.9 0-5.8-.9-8.4-2.2 4.1-3.9 6.6-9 7.7-14.7 2.2-1.2 4.8-1.7 7.3-1.7 3.4 0 6.8 1.2 9.7 3.2-.4 8.4-7.6 15.4-16.3 15.4m-40-15.7c2.7-2 6.1-3.2 9.5-3.2 2.6 0 4.9.5 7.2 1.7 1 5.6 3.7 10.7 7.7 14.8-2.6 1.5-5.3 2.2-8.2 2.2-8.7.2-15.9-6.8-16.2-15.5M100.2 87a22.2 22.2 0 017.3 17c0 6.5-2.7 12.6-7.3 17a22.2 22.2 0 01-7.3-17c-.2-6.4 2.5-12.5 7.3-17m32 21.2c-.2-.3-.3-.5-.5-.7a19.7 19.7 0 00-13-4.6c-2.4 0-4.8.3-7 1.2 0-8.4-3.7-16.2-10.4-21.5-.9-.7-1.9-.7-2.7 0a27.45 27.45 0 00-10.4 21.5c-2.2-.9-4.4-1.2-6.8-1.2-4.8 0-9.4 1.7-13 4.6-.2.2-.3.3-.5.7-.3.3-.5.9-.5 1.2 0 11.4 9.2 20.6 20.6 20.6 4.3 0 8.4-1.4 11.8-3.7 3.4 2.4 7.7 3.7 11.8 3.7 11.4 0 20.6-9.2 20.6-20.6.5-.4.4-.9 0-1.2" fill-rule="evenodd" clip-rule="evenodd"/></svg>